<svg width="24" height="23" viewBox="0 0 24 23" fill="none" xmlns="http://www.w3.org/2000/svg">
<g clip-path="url(#clip0_374_1022)">
<path d="M3.22113 11.6754C3.12836 11.5826 3.07066 11.4548 3.07066 11.3134C3.07066 11.0305 3.29976 10.8014 3.5826 10.8014L20.4174 10.8014C20.7002 10.8014 20.9293 11.0305 20.9293 11.3134C20.9293 11.5962 20.7002 11.8253 20.4174 11.8253L3.58317 11.8259C3.44175 11.8259 3.3139 11.7682 3.22113 11.6754Z" fill="#FFFEF9"/>
<path d="M12.4583 19.276C12.2586 19.0763 12.2586 18.7516 12.4583 18.5519L19.6951 11.3151L12.4583 4.0783C12.2586 3.87862 12.2586 3.55391 12.4583 3.35423C12.658 3.15454 12.9827 3.15454 13.1824 3.35423L20.7812 10.9531C20.9809 11.1528 20.9809 11.4775 20.7812 11.6772L13.1824 19.276C12.9827 19.4757 12.658 19.4757 12.4583 19.276Z" fill="#FFFEF9"/>
</g>
<defs>
<clipPath id="clip0_374_1022">
<rect width="16" height="16" fill="white" transform="translate(12) rotate(45)"/>
</clipPath>
</defs>
</svg>
