<svg width="18" height="18" viewBox="0 0 18 18" fill="none" xmlns="http://www.w3.org/2000/svg">
<path d="M6.90494 1.87267L7.59722 3.11312C8.22197 4.23257 7.97117 5.70109 6.9872 6.68507C6.9872 6.68507 6.9872 6.68507 6.9872 6.68507C6.98709 6.68519 5.79378 7.87872 7.95766 10.0426C10.1209 12.2058 11.3144 11.0139 11.3152 11.0131C11.3152 11.013 11.3152 11.0131 11.3152 11.013C12.2992 10.0291 13.7677 9.7783 14.8871 10.403L16.1276 11.0953C17.818 12.0387 18.0176 14.4093 16.5318 15.8951C15.639 16.7879 14.5453 17.4826 13.3362 17.5284C11.3009 17.6056 7.84434 17.0905 4.37706 13.6232C0.90978 10.1559 0.394673 6.69939 0.471832 4.66404C0.517667 3.45499 1.21237 2.36127 2.10517 1.46846C3.59098 -0.0173493 5.96156 0.182283 6.90494 1.87267Z" fill="white"/>
</svg>
