<svg width="19" height="19" viewBox="0 0 19 19" fill="none" xmlns="http://www.w3.org/2000/svg">
<g clip-path="url(#clip0_676_371)">
<path d="M18.3609 6.17096C18.3188 5.21455 18.1641 4.55702 17.9425 3.98727C17.714 3.38249 17.3624 2.84104 16.9017 2.39092C16.4515 1.9338 15.9065 1.5786 15.3087 1.35361C14.7357 1.13205 14.0816 0.97739 13.1252 0.935222C12.1616 0.889483 11.8558 0.878906 9.41191 0.878906C6.96808 0.878906 6.66219 0.889483 5.70221 0.931651C4.7458 0.973819 4.08827 1.12862 3.51866 1.35004C2.91374 1.5786 2.37229 1.93023 1.92217 2.39092C1.46505 2.84104 1.10998 3.38606 0.884858 3.98384C0.663303 4.55702 0.50864 5.21097 0.466472 6.16738C0.420733 7.13094 0.410156 7.43683 0.410156 9.88066C0.410156 12.3245 0.420733 12.6304 0.462901 13.5904C0.505069 14.5468 0.659869 15.2043 0.881424 15.7741C1.10998 16.3788 1.46505 16.9203 1.92217 17.3704C2.37229 17.8275 2.91731 18.1827 3.51509 18.4077C4.08827 18.6293 4.74223 18.7839 5.69877 18.8261C6.65862 18.8684 6.96464 18.8789 9.40848 18.8789C11.8523 18.8789 12.1582 18.8684 13.1182 18.8261C14.0746 18.7839 14.7321 18.6293 15.3017 18.4077C16.5114 17.94 17.4678 16.9836 17.9355 15.7741C18.157 15.2009 18.3118 14.5468 18.3539 13.5904C18.3961 12.6304 18.4067 12.3245 18.4067 9.88066C18.4067 7.43683 18.4031 7.13094 18.3609 6.17096ZM16.74 13.52C16.7013 14.3991 16.5536 14.8738 16.4305 15.1903C16.1281 15.9745 15.5057 16.5968 14.7215 16.8993C14.4051 17.0223 13.9269 17.17 13.0513 17.2086C12.1019 17.2509 11.8172 17.2613 9.41549 17.2613C7.01382 17.2613 6.72551 17.2509 5.77954 17.2086C4.90046 17.17 4.42576 17.0223 4.10929 16.8993C3.71906 16.7551 3.36386 16.5265 3.07555 16.2276C2.77666 15.9357 2.5481 15.5841 2.40388 15.1939C2.28081 14.8774 2.13315 14.3991 2.09455 13.5236C2.05225 12.5742 2.04181 12.2893 2.04181 9.88767C2.04181 7.486 2.05225 7.19769 2.09455 6.25186C2.13315 5.37278 2.28081 4.89808 2.40388 4.58161C2.5481 4.19124 2.77666 3.83618 3.07912 3.54773C3.37086 3.24885 3.72249 3.02029 4.11286 2.8762C4.42933 2.75313 4.9076 2.60547 5.78311 2.56674C6.73251 2.52457 7.01739 2.51399 9.41892 2.51399C11.8242 2.51399 12.1089 2.52457 13.0549 2.56674C13.9339 2.60547 14.4086 2.75313 14.7251 2.8762C15.1153 3.02029 15.4705 3.24885 15.7589 3.54773C16.0577 3.83961 16.2863 4.19124 16.4305 4.58161C16.5536 4.89808 16.7013 5.37621 16.74 6.25186C16.7822 7.20126 16.7927 7.486 16.7927 9.88767C16.7927 12.2893 16.7822 12.5706 16.74 13.52Z" fill="#F8F5F0"/>
<path d="M9.41106 5.25586C6.8583 5.25586 4.78711 7.32691 4.78711 9.87981C4.78711 12.4327 6.8583 14.5038 9.41106 14.5038C11.964 14.5038 14.035 12.4327 14.035 9.87981C14.035 7.32691 11.964 5.25586 9.41106 5.25586ZM9.41106 12.8793C7.75496 12.8793 6.41162 11.536 6.41162 9.87981C6.41162 8.22357 7.75496 6.88037 9.41106 6.88037C11.0673 6.88037 12.4105 8.22357 12.4105 9.87981C12.4105 11.536 11.0673 12.8793 9.41106 12.8793Z" fill="#F8F5F0"/>
<path d="M15.2997 5.07167C15.2997 5.66779 14.8164 6.15115 14.2201 6.15115C13.624 6.15115 13.1406 5.66779 13.1406 5.07167C13.1406 4.47541 13.624 3.99219 14.2201 3.99219C14.8164 3.99219 15.2997 4.47541 15.2997 5.07167Z" fill="#F8F5F0"/>
</g>
<defs>
<clipPath id="clip0_676_371">
<rect width="18" height="18" fill="white" transform="translate(0.378906 0.878906)"/>
</clipPath>
</defs>
</svg>
