<svg width="180" height="12" viewBox="0 0 180 12" fill="none" xmlns="http://www.w3.org/2000/svg">
<g clip-path="url(#clip0_426_3190)">
<path d="M163.1 11.4C150.3 11.4 140.3 9.10935 130.7 6.92523C121.1 4.74112 112 2.66355 100.3 2.66355C88.5 2.66355 79.5 4.74112 69.9 6.92523C60.3 9.10935 50.3 11.4 37.5 11.4C24.7 11.4 14.7 9.10935 5.10001 6.92523C-4.49999 4.74112 -13.6 2.66355 -25.3 2.66355C-37.1 2.66355 -46.1 4.74112 -55.7 6.92523C-65.3 9.10935 -75.3 11.4 -88.1 11.4C-100.9 11.4 -110.9 9.10935 -120.5 6.92523C-130.1 4.74112 -139.2 2.66355 -150.9 2.66355C-162.9 2.66355 -172 4.74112 -181.6 6.92523C-191.2 9.10935 -201.2 11.4 -214 11.4C-219.6 11.4 -225.2 10.9738 -231 10.0682L-229.6 7.51121C-224.2 8.36355 -219.1 8.73645 -214 8.73645C-202.2 8.73645 -193.2 6.65888 -183.6 4.47477C-173.9 2.29065 -163.9 0 -151.1 0C-138.3 0 -128.3 2.29065 -118.7 4.47477C-109.1 6.65888 -100 8.73645 -88.3 8.73645C-76.5 8.73645 -67.5 6.65888 -57.9 4.47477C-48.3 2.29065 -38.3 0 -25.5 0C-12.7 0 -2.70001 2.29065 6.89999 4.47477C16.5 6.65888 25.6 8.73645 37.3 8.73645C49.1 8.73645 58.1 6.65888 67.7 4.47477C77.3 2.29065 87.3 0 100.1 0C112.9 0 122.9 2.29065 132.5 4.47477C142.1 6.65888 151.2 8.73645 162.9 8.73645C168 8.73645 173.1 8.31028 178.5 7.51121L179.9 10.0682C174.3 10.9738 168.8 11.4 163.1 11.4Z" fill="#215D9C"/>
</g>
<defs>
<clipPath id="clip0_426_3190">
<rect width="180" height="12" fill="white"/>
</clipPath>
</defs>
</svg>
