<svg width="16" height="16" viewBox="0 0 16 16" fill="none" xmlns="http://www.w3.org/2000/svg">
<g clip-path="url(#clip0_676_377)">
<path d="M15.9968 15.9975L16.0008 15.9969V10.1289C16.0008 7.25821 15.3828 5.04688 12.0268 5.04688C10.4135 5.04688 9.33082 5.93221 8.88882 6.77154H8.84216V5.31487H5.66016V15.9969H8.97349V10.7075C8.97349 9.31488 9.23749 7.96821 10.9622 7.96821C12.6615 7.96821 12.6868 9.55754 12.6868 10.7969V15.9975H15.9968Z" fill="#F8F5F0"/>
<path d="M0.265625 5.31641H3.58296V15.9984H0.265625V5.31641Z" fill="#F8F5F0"/>
<path d="M1.92329 0C0.86262 0 0.00195312 0.860667 0.00195312 1.92133C0.00195312 2.982 0.86262 3.86067 1.92329 3.86067C2.98395 3.86067 3.84462 2.982 3.84462 1.92133C3.84395 0.860667 2.98329 0 1.92329 0Z" fill="#F8F5F0"/>
</g>
<defs>
<clipPath id="clip0_676_377">
<rect width="16" height="16" fill="white"/>
</clipPath>
</defs>
</svg>
