<svg width="19" height="19" viewBox="0 0 19 19" fill="none" xmlns="http://www.w3.org/2000/svg">
<g clip-path="url(#clip0_374_2169)">
<path d="M18.9935 19L18.9983 18.9992V12.031C18.9983 8.62205 18.2644 5.99609 14.2792 5.99609C12.3633 5.99609 11.0777 7.04743 10.5528 8.04414H10.4974V6.31434H6.71875V18.9992H10.6533V12.7181C10.6533 11.0643 10.9668 9.46518 13.0149 9.46518C15.0328 9.46518 15.0629 11.3525 15.0629 12.8242V19H18.9935Z" fill="#F8F5F0"/>
<path d="M0.314453 6.31445H4.25379V18.9993H0.314453V6.31445Z" fill="#F8F5F0"/>
<path d="M2.28158 0C1.02204 0 0 1.02204 0 2.28158C0 3.54113 1.02204 4.58454 2.28158 4.58454C3.54113 4.58454 4.56317 3.54113 4.56317 2.28158C4.56238 1.02204 3.54033 0 2.28158 0Z" fill="#F8F5F0"/>
</g>
<defs>
<clipPath id="clip0_374_2169">
<rect width="19" height="19" fill="white"/>
</clipPath>
</defs>
</svg>
