<svg width="66" height="66" viewBox="0 0 66 66" fill="none" xmlns="http://www.w3.org/2000/svg">
<path d="M26.7868 9.28125H1.93359C0.865585 9.28125 0 10.1468 0 11.2148V36.0681C0 37.1361 0.865585 38.0017 1.93359 38.0017H12.4264V54.7081C12.4264 55.7756 13.2919 56.6417 14.36 56.6417H20.5736C21.406 56.6417 22.1447 56.109 22.4075 55.3194L28.6207 36.6794C28.6867 36.4825 28.7204 36.276 28.7204 36.0681V11.2148C28.7204 10.1468 27.8548 9.28125 26.7868 9.28125Z" fill="#A46E29"/>
<path d="M64.0661 9.28125H39.2129C38.1449 9.28125 37.2793 10.1468 37.2793 11.2148V36.0681C37.2793 37.1361 38.1449 38.0017 39.2129 38.0017H49.7062V54.7081C49.7062 55.7756 50.5717 56.6417 51.6398 56.6417H57.8529C58.6853 56.6417 59.424 56.109 59.6873 55.3194L65.9005 36.6794C65.966 36.4825 65.9997 36.276 65.9997 36.0681V11.2148C65.9997 10.1468 65.1341 9.28125 64.0661 9.28125Z" fill="#A46E29"/>
</svg>
