<svg width="16" height="16" viewBox="0 0 16 16" fill="none" xmlns="http://www.w3.org/2000/svg">
<path d="M14.7867 13.6083L12.0841 10.9057C12.9032 9.8335 13.3524 8.53294 13.3526 7.16056C13.3526 5.50671 12.7084 3.95174 11.5388 2.78231C10.3694 1.61287 8.8146 0.96875 7.16054 0.96875C5.50669 0.96875 3.95172 1.61287 2.78229 2.78231C0.368144 5.19666 0.368144 9.12488 2.78229 11.5388C3.95172 12.7085 5.50669 13.3526 7.16054 13.3526C8.53292 13.3524 9.83348 12.9032 10.9057 12.0841L13.6083 14.7867C13.7709 14.9495 13.9843 15.0308 14.1975 15.0308C14.4107 15.0308 14.6241 14.9495 14.7867 14.7867C15.1122 14.4614 15.1122 13.9336 14.7867 13.6083ZM3.96067 10.3604C2.19635 8.59611 2.19655 5.72522 3.96067 3.96069C4.81537 3.1062 5.95184 2.63542 7.16054 2.63542C8.36945 2.63542 9.50572 3.1062 10.3604 3.96069C11.2151 4.81539 11.6859 5.95186 11.6859 7.16056C11.6859 8.36947 11.2151 9.50574 10.3604 10.3604C9.50572 11.2151 8.36945 11.6859 7.16054 11.6859C5.95184 11.6859 4.81537 11.2151 3.96067 10.3604Z" fill="white"/>
</svg>
