<svg width="18" height="18" viewBox="0 0 18 18" fill="none" xmlns="http://www.w3.org/2000/svg">
<g clip-path="url(#clip0_508_1422)">
<path d="M9 18C13.9706 18 18 13.9706 18 9C18 4.02944 13.9706 0 9 0C4.02944 0 0 4.02944 0 9C0 13.9706 4.02944 18 9 18Z" fill="#00A6DE"/>
<path d="M13.4819 6.27652C13.2692 6.59607 13.0093 6.88155 12.711 7.12323C12.6734 7.15456 12.6433 7.19389 12.6228 7.23834C12.6023 7.28279 12.592 7.33126 12.5926 7.3802V7.40981C12.5891 8.05158 12.4712 8.68759 12.2444 9.28796C12.0108 9.9181 11.6636 10.5001 11.2201 11.0051C10.6241 11.6835 9.85749 12.1901 8.9997 12.4723C8.43605 12.6552 7.84676 12.7468 7.25417 12.7435C6.31407 12.7434 5.39073 12.4946 4.57786 12.0223C4.54873 12.0057 4.5258 11.9801 4.51255 11.9494C4.4993 11.9186 4.49645 11.8843 4.50444 11.8518C4.51263 11.8198 4.53131 11.7914 4.55749 11.7712C4.58368 11.7511 4.61586 11.7402 4.64891 11.7405H4.87391C5.58834 11.7422 6.28697 11.5302 6.87996 11.1318C6.52657 11.0746 6.19583 10.9209 5.92419 10.6877C5.65256 10.4545 5.45057 10.1509 5.34049 9.8102C5.33485 9.79314 5.33383 9.77489 5.33753 9.75731C5.34122 9.73973 5.3495 9.72343 5.36153 9.71008C5.37355 9.69674 5.3889 9.68681 5.406 9.6813C5.4231 9.6758 5.44136 9.67492 5.45891 9.67875C5.56668 9.69903 5.67609 9.70934 5.78575 9.70954H5.8272C5.48565 9.55263 5.19686 9.30014 4.99574 8.98259C4.79462 8.66505 4.68979 8.29605 4.69391 7.9202C4.69403 7.90261 4.69871 7.88536 4.70748 7.87011C4.71625 7.85487 4.72882 7.84216 4.74396 7.83321C4.75911 7.82427 4.77631 7.8194 4.79389 7.81908C4.81148 7.81876 4.82885 7.823 4.84431 7.83138C4.98323 7.90895 5.1323 7.96674 5.2872 8.00309C4.98103 7.70017 4.78409 7.30417 4.72729 6.87723C4.67049 6.45029 4.75705 6.01658 4.97339 5.64415C4.98157 5.62984 4.9931 5.61774 5.00699 5.60887C5.02089 5.60001 5.03672 5.59465 5.05314 5.59325C5.06957 5.59185 5.08608 5.59446 5.10127 5.60085C5.11646 5.60724 5.12987 5.61722 5.14036 5.62994C5.56807 6.15952 6.09779 6.59781 6.69808 6.9188C7.29838 7.2398 7.95703 7.43697 8.63496 7.49862H8.64444C8.6544 7.49833 8.6642 7.49602 8.67323 7.49182C8.68227 7.48763 8.69036 7.48163 8.69701 7.47421C8.70365 7.46679 8.70872 7.45809 8.7119 7.44865C8.71508 7.4392 8.7163 7.42921 8.71549 7.41928C8.68905 7.18162 8.70428 6.94117 8.76049 6.70875C8.8369 6.39282 8.99374 6.10203 9.21577 5.86464C9.4378 5.62726 9.71747 5.45135 10.0276 5.35402C10.2266 5.29186 10.4337 5.25993 10.6422 5.25928C11.1149 5.25873 11.5714 5.43099 11.9259 5.74362C11.9718 5.78471 12.0312 5.80747 12.0929 5.80757C12.1129 5.80714 12.1327 5.80436 12.1521 5.79928C12.4852 5.71511 12.8043 5.58308 13.0994 5.4073C13.1171 5.39641 13.1377 5.39124 13.1584 5.3925C13.1791 5.39377 13.199 5.40141 13.2152 5.41437C13.2314 5.42734 13.2432 5.445 13.249 5.46493C13.2547 5.48487 13.2542 5.5061 13.2475 5.52573C13.1489 5.83573 12.9733 6.11566 12.7371 6.33928C12.9499 6.28854 13.1576 6.21838 13.3576 6.12967C13.3773 6.12205 13.399 6.12077 13.4195 6.126C13.44 6.13123 13.4583 6.14272 13.472 6.15887C13.4857 6.17502 13.494 6.19502 13.4958 6.2161C13.4975 6.23719 13.4927 6.2583 13.4819 6.27652Z" fill="white"/>
</g>
<defs>
<clipPath id="clip0_508_1422">
<rect width="18" height="18" fill="white"/>
</clipPath>
</defs>
</svg>
