<svg width="18" height="18" viewBox="0 0 18 18" fill="none" xmlns="http://www.w3.org/2000/svg">
<g clip-path="url(#clip0_508_1432)">
<path d="M9 18C13.9706 18 18 13.9706 18 9C18 4.02944 13.9706 0 9 0C4.02944 0 0 4.02944 0 9C0 13.9706 4.02944 18 9 18Z" fill="#0B69C7"/>
<path d="M6.98772 5.72803C6.98795 5.97124 6.91603 6.20906 6.78105 6.41139C6.64608 6.61371 6.45411 6.77144 6.22945 6.86463C6.0048 6.95781 5.75755 6.98225 5.51899 6.93486C5.28044 6.88747 5.0613 6.77037 4.88932 6.59839C4.71735 6.42641 4.60025 6.20728 4.55286 5.96873C4.50547 5.73017 4.52991 5.48292 4.62309 5.25827C4.71627 5.03361 4.87401 4.84164 5.07633 4.70667C5.27866 4.57169 5.51648 4.49977 5.75969 4.5C6.08529 4.50031 6.39746 4.6298 6.62769 4.86003C6.85792 5.09026 6.9874 5.40243 6.98772 5.72803Z" fill="white"/>
<path d="M6.40609 7.46875H5.11294C4.94485 7.46875 4.80859 7.60501 4.80859 7.77309V13.1956C4.80859 13.3637 4.94485 13.4999 5.11294 13.4999H6.40609C6.57418 13.4999 6.71044 13.3637 6.71044 13.1956V7.77309C6.71044 7.60501 6.57418 7.46875 6.40609 7.46875Z" fill="white"/>
<path d="M13.4709 10.595V13.2204C13.4709 13.2945 13.4414 13.3656 13.389 13.418C13.3366 13.4704 13.2655 13.4999 13.1914 13.4999H11.8035C11.7294 13.4999 11.6583 13.4704 11.6059 13.418C11.5535 13.3656 11.524 13.2945 11.524 13.2204V10.6767C11.524 10.2966 11.6342 9.01883 10.5317 9.01883C9.67667 9.01883 9.50259 9.89752 9.46588 10.2919V13.2263C9.46434 13.299 9.43455 13.3682 9.38281 13.4193C9.33107 13.4704 9.26147 13.4993 9.18878 13.4999H7.84588C7.80914 13.5 7.77273 13.4929 7.73875 13.4789C7.70477 13.4649 7.6739 13.4444 7.64792 13.4184C7.62193 13.3924 7.60135 13.3615 7.58736 13.3275C7.57337 13.2936 7.56625 13.2572 7.56641 13.2204V7.74936C7.56625 7.71256 7.57337 7.67609 7.58734 7.64204C7.60132 7.608 7.62188 7.57705 7.64784 7.55097C7.67381 7.5249 7.70467 7.5042 7.73866 7.49009C7.77264 7.47597 7.80908 7.4687 7.84588 7.4687H9.18878C9.22603 7.46807 9.26304 7.47487 9.29764 7.48869C9.33224 7.50251 9.36374 7.52308 9.3903 7.54921C9.41687 7.57533 9.43797 7.60648 9.45236 7.64085C9.46676 7.67521 9.47418 7.7121 9.47417 7.74936V8.22304C9.79154 7.74936 10.2629 7.37988 11.2659 7.37988C13.4839 7.3787 13.4709 9.45462 13.4709 10.595Z" fill="white"/>
</g>
<defs>
<clipPath id="clip0_508_1432">
<rect width="18" height="18" fill="white"/>
</clipPath>
</defs>
</svg>
