<svg width="32" height="33" viewBox="0 0 32 33" fill="none" xmlns="http://www.w3.org/2000/svg">
<path d="M5 8.50005V19.5C5 19.65 5.05 19.8 5.1 19.9C5.25 20.2 8.35 26.8 15.6 29.9H15.65H15.7C15.8 29.9 15.85 29.9501 15.95 29.9501C16.05 29.9501 16.1 29.95 16.2 29.9H16.25H16.3C23.55 26.8 26.7 20.2 26.8 19.9C26.85 19.75 26.9 19.65 26.9 19.5V8.50005C26.9 8.05005 26.6 7.65005 26.15 7.55005C22.35 6.60005 16.5 2.75005 16.45 2.70005C16.4 2.65005 16.35 2.65005 16.25 2.60005C16.2 2.60005 16.2 2.60005 16.15 2.55005C16.1 2.55005 16.1 2.55005 16.05 2.55005C16 2.55005 15.95 2.55005 15.9 2.55005H15.85C15.8 2.55005 15.75 2.55005 15.75 2.55005H15.7C15.65 2.55005 15.6 2.60005 15.55 2.60005C15.5 2.65005 15.45 2.65005 15.35 2.70005C15.25 2.75005 9.45 6.60005 5.65 7.55005C5.3 7.65005 5 8.05005 5 8.50005ZM7 9.25005C10.35 8.20005 14.5 5.65005 16 4.70005C17.5 5.65005 21.65 8.20005 25 9.25005V19.25C24.45 20.3 21.65 25.3 16 27.9C10.35 25.3 7.55 20.3 7 19.25V9.25005Z" fill="#215D9C"/>
<path d="M14.3008 19.7C14.5008 19.9 14.7508 20 15.0008 20C15.2508 20 15.5008 19.9 15.7008 19.7L20.6508 14.75C21.0508 14.35 21.0508 13.75 20.6508 13.35C20.2508 12.95 19.6508 12.95 19.2508 13.35L15.0008 17.6L12.7508 15.35C12.3508 14.95 11.7508 14.95 11.3508 15.35C10.9508 15.75 10.9508 16.35 11.3508 16.75L14.3008 19.7Z" fill="#215D9C"/>
</svg>
