<svg width="32" height="33" viewBox="0 0 32 33" fill="none" xmlns="http://www.w3.org/2000/svg">
<path d="M9.66953 8.95393H18.9125C19.4095 8.95393 19.8125 8.55093 19.8125 8.05393C19.8125 7.55693 19.4095 7.15393 18.9125 7.15393H9.66953C9.17253 7.15393 8.76953 7.55693 8.76953 8.05393C8.76953 8.55093 9.17253 8.95393 9.66953 8.95393Z" fill="#215D9C"/>
<path d="M24.2097 1.59998H7.78969C5.38569 1.59998 3.42969 3.55598 3.42969 5.95998V24.21C3.42969 26.614 5.38569 28.57 7.78969 28.57H12.3497C12.8467 28.57 13.2497 28.167 13.2497 27.67C13.2497 27.173 12.8467 26.77 12.3497 26.77H7.78969C6.37869 26.77 5.22969 25.622 5.22969 24.21V5.95998C5.22969 4.54798 6.37769 3.39998 7.78969 3.39998H24.2097C25.6207 3.39998 26.7697 4.54798 26.7697 5.95998V24.21C26.7697 25.317 26.0637 26.292 25.0107 26.635C24.5377 26.789 24.2807 27.297 24.4347 27.77C24.5887 28.243 25.0967 28.499 25.5697 28.346C27.3647 27.761 28.5707 26.098 28.5707 24.21V5.95998C28.5697 3.55598 26.6137 1.59998 24.2097 1.59998Z" fill="#215D9C"/>
<path d="M18.8197 17.177C16.1697 17.177 14.0117 19.333 14.0117 21.984C14.0117 23.321 14.5627 24.53 15.4467 25.402V30.5C15.4467 30.831 15.6287 31.135 15.9197 31.292C16.2117 31.45 16.5657 31.434 16.8417 31.252L18.8207 29.954L20.7997 31.252C20.9487 31.35 21.1207 31.399 21.2937 31.399C21.4397 31.399 21.5877 31.363 21.7217 31.291C22.0127 31.134 22.1947 30.83 22.1947 30.499V25.4C23.0777 24.528 23.6287 23.319 23.6287 21.982C23.6267 19.333 21.4707 17.177 18.8197 17.177ZM18.8197 18.977C20.4767 18.977 21.8257 20.326 21.8257 21.984C21.8257 23.642 20.4767 24.991 18.8197 24.991C17.1617 24.991 15.8127 23.642 15.8127 21.984C15.8127 20.326 17.1617 18.977 18.8197 18.977ZM20.3927 28.833L19.3147 28.125C19.0137 27.929 18.6267 27.929 18.3267 28.125L17.2487 28.833V26.505C17.7437 26.678 18.2677 26.791 18.8207 26.791C19.3747 26.791 19.8977 26.678 20.3927 26.505V28.833Z" fill="#215D9C"/>
</svg>
