<svg width="32" height="33" viewBox="0 0 32 33" fill="none" xmlns="http://www.w3.org/2000/svg">
<g clip-path="url(#clip0_177_370)">
<mask id="mask0_177_370" style="mask-type:luminance" maskUnits="userSpaceOnUse" x="0" y="0" width="32" height="33">
<path d="M32 0.5H0V32.5H32V0.5Z" fill="white"/>
<path d="M16 25.25C16.345 25.25 16.625 25.53 16.625 25.875C16.625 26.22 16.345 26.5 16 26.5C15.655 26.5 15.375 26.22 15.375 25.875C15.375 25.53 15.655 25.25 16 25.25Z" fill="white"/>
</mask>
<g mask="url(#mask0_177_370)">
<mask id="mask1_177_370" style="mask-type:luminance" maskUnits="userSpaceOnUse" x="0" y="0" width="32" height="33">
<path d="M0 0.500002H32V32.5H0V0.500002Z" fill="white"/>
</mask>
<g mask="url(#mask1_177_370)">
<path d="M29.3125 20.25C29.3125 21.9756 27.9131 23.375 26.1875 23.375C24.4619 23.375 23.0625 21.9756 23.0625 20.25C23.0625 18.5244 24.4619 17.125 26.1875 17.125C27.9131 17.125 29.3125 18.5244 29.3125 20.25Z" stroke="#215D9C" stroke-width="1.5" stroke-miterlimit="10" stroke-linecap="round" stroke-linejoin="round"/>
<path d="M9.125 30.875H0.625V29.625C0.625 26.8638 3.05125 24.625 5.8125 24.625C7.50063 24.625 9.18062 25.4613 10.0856 26.7425" stroke="#215D9C" stroke-width="1.5" stroke-miterlimit="10" stroke-linecap="round" stroke-linejoin="round"/>
<path d="M21.9141 26.7425C22.8191 25.4613 24.4991 24.625 26.1872 24.625C28.9484 24.625 31.3747 26.8637 31.3747 29.625V30.875H22.8747" stroke="#215D9C" stroke-width="1.5" stroke-miterlimit="10" stroke-linecap="round" stroke-linejoin="round"/>
<path d="M8.9375 20.25C8.9375 21.9756 7.53812 23.375 5.8125 23.375C4.08687 23.375 2.6875 21.9756 2.6875 20.25C2.6875 18.5244 4.08687 17.125 5.8125 17.125C7.53812 17.125 8.9375 18.5244 8.9375 20.25Z" stroke="#215D9C" stroke-width="1.5" stroke-miterlimit="10" stroke-linecap="round" stroke-linejoin="round"/>
<path d="M20.375 17.75C20.375 20.1663 18.4162 22.125 16 22.125C13.5837 22.125 11.625 20.1663 11.625 17.75C11.625 15.3338 13.5837 13.375 16 13.375C18.4162 13.375 20.375 15.3338 20.375 17.75Z" stroke="#215D9C" stroke-width="1.5" stroke-miterlimit="10" stroke-linecap="round" stroke-linejoin="round"/>
<path d="M15.9779 2.12496L14.626 4.88933L11.6035 5.32808L13.791 7.45996L13.2748 10.4706L15.9779 9.04933C16.9935 9.58308 17.6948 9.95183 18.6817 10.4706L18.1648 7.45996L20.3523 5.32808L17.3298 4.88933L15.9779 2.12496Z" stroke="#215D9C" stroke-width="1.5" stroke-miterlimit="10" stroke-linecap="round" stroke-linejoin="round"/>
<path d="M26.5792 12.6618L28.5036 13.6731L28.1361 11.5306L29.6929 10.0125L27.5411 9.69997L26.5792 7.74997L25.6167 9.69997L23.4648 10.0125L25.0217 11.5306L24.6542 13.6731L26.5792 12.6618Z" stroke="#215D9C" stroke-width="1.5" stroke-miterlimit="10" stroke-linecap="round" stroke-linejoin="round"/>
<path d="M5.32922 12.6618L7.25359 13.6731L6.88609 11.5306L8.44297 10.0125L6.29109 9.69997L5.32922 7.74997L4.36672 9.69997L2.21484 10.0125L3.77172 11.5306L3.40422 13.6731L5.32922 12.6618Z" stroke="#215D9C" stroke-width="1.5" stroke-miterlimit="10" stroke-linecap="round" stroke-linejoin="round"/>
<path d="M22.875 30.875H9.125V30.25C9.125 28.9688 9.47562 27.7694 10.0856 26.7425C11.2844 24.7262 13.4844 23.375 16 23.375C17.8987 23.375 19.6175 24.1444 20.8612 25.3888C21.2656 25.7931 21.62 26.2475 21.9144 26.7425C22.5244 27.7694 22.875 28.9688 22.875 30.25V30.875Z" stroke="#215D9C" stroke-width="1.5" stroke-miterlimit="10" stroke-linecap="round" stroke-linejoin="round"/>
</g>
</g>
</g>
<defs>
<clipPath id="clip0_177_370">
<rect width="32" height="32" fill="white" transform="translate(0 0.5)"/>
</clipPath>
</defs>
</svg>
