<svg width="32" height="33" viewBox="0 0 32 33" fill="none" xmlns="http://www.w3.org/2000/svg">
<g clip-path="url(#clip0_177_356)">
<mask id="mask0_177_356" style="mask-type:luminance" maskUnits="userSpaceOnUse" x="0" y="0" width="32" height="33">
<path d="M0 0.500002H32V32.5H0V0.500002Z" fill="white"/>
</mask>
<g mask="url(#mask0_177_356)">
<path d="M3.44995 20.532C4.07614 22.0552 5.93908 22.625 7.31026 21.7128L11.0932 19.1958C12.0593 18.559 13.1866 18.1426 14.343 18.1854C15.4871 18.2277 16.5609 18.6099 17.3979 19.5113C18.3921 20.5819 19.3707 21.671 20.4216 22.684C22.3237 24.5175 25.4161 24.5251 27.0684 22.6881C28.5621 21.0273 29.8103 19.1532 30.558 17.0323C31.3155 14.8835 31.2841 13.9625 30.0215 11.9473L23.4787 2.59804L23.4936 6.01923C23.4518 7.14279 22.1208 7.66341 21.1804 7.07816L18.4313 4.83923C17.9881 4.43935 17.9723 3.89141 18.2611 3.34522C18.4985 2.89641 18.7042 2.43085 19.0106 1.79185C14.4403 1.15291 15.9762 1.01585 13.3534 4.36385C12.9255 4.9101 12.145 4.98304 11.6155 4.5346C10.5828 3.66004 10.2182 3.67129 9.21833 4.6066L2.73114 10.9375C0.974765 12.2988 0.47614 13.7313 1.29695 15.6291L3.44995 20.532Z" stroke="#215D9C" stroke-width="2" stroke-miterlimit="10" stroke-linecap="round" stroke-linejoin="round"/>
<path d="M21.7305 27.8125H27.1336C26.7939 29.4311 25.713 31.5625 24.432 31.5625C23.151 31.5625 22.0702 29.4311 21.7305 27.8125Z" stroke="#215D9C" stroke-width="2" stroke-miterlimit="10" stroke-linecap="round" stroke-linejoin="round"/>
</g>
</g>
<defs>
<clipPath id="clip0_177_356">
<rect width="32" height="32" fill="white" transform="translate(0 0.5)"/>
</clipPath>
</defs>
</svg>
