<svg width="18" height="18" viewBox="0 0 18 18" fill="none" xmlns="http://www.w3.org/2000/svg">
<g clip-path="url(#clip0_501_1662)">
<path d="M9 18C13.9706 18 18 13.9706 18 9C18 4.02944 13.9706 0 9 0C4.02944 0 0 4.02944 0 9C0 13.9706 4.02944 18 9 18Z" fill="url(#paint0_linear_501_1662)"/>
<path d="M10.8189 4.5H7.18105C6.47028 4.50094 5.78889 4.78371 5.2863 5.2863C4.78371 5.78889 4.50094 6.47028 4.5 7.18105V10.8189C4.50094 11.5297 4.78371 12.2111 5.2863 12.7137C5.78889 13.2163 6.47028 13.4991 7.18105 13.5H10.8189C11.5298 13.4994 12.2114 13.2167 12.714 12.714C13.2167 12.2114 13.4994 11.5298 13.5 10.8189V7.18105C13.4991 6.47028 13.2163 5.78889 12.7137 5.2863C12.2111 4.78371 11.5297 4.50094 10.8189 4.5ZM12.5953 10.8189C12.5953 11.2901 12.4081 11.7419 12.075 12.075C11.7419 12.4081 11.2901 12.5953 10.8189 12.5953H7.18105C6.70994 12.5953 6.25813 12.4081 5.92501 12.075C5.59188 11.7419 5.40474 11.2901 5.40474 10.8189V7.18105C5.40474 6.70994 5.59188 6.25813 5.92501 5.92501C6.25813 5.59188 6.70994 5.40474 7.18105 5.40474H10.8189C11.2901 5.40474 11.7419 5.59188 12.075 5.92501C12.4081 6.25813 12.5953 6.70994 12.5953 7.18105V10.8189Z" fill="white"/>
<path d="M9.00122 6.67285C8.54065 6.67262 8.09036 6.80899 7.70732 7.06472C7.32427 7.32046 7.02568 7.68405 6.84932 8.10952C6.67296 8.53498 6.62676 9.00319 6.71655 9.45492C6.80635 9.90665 7.02811 10.3216 7.35378 10.6473C7.67945 10.9729 8.09439 11.1947 8.54612 11.2845C8.99785 11.3743 9.46606 11.3281 9.89153 11.1517C10.317 10.9754 10.6806 10.6768 10.9363 10.2937C11.192 9.91068 11.3284 9.46039 11.3282 8.99983C11.3276 8.38287 11.0822 7.79136 10.6459 7.3551C10.2097 6.91884 9.61818 6.67348 9.00122 6.67285ZM9.00122 10.4209C8.72016 10.4209 8.44541 10.3375 8.21172 10.1814C7.97803 10.0252 7.79589 9.8033 7.68834 9.54364C7.58078 9.28398 7.55264 8.99825 7.60747 8.72259C7.6623 8.44693 7.79764 8.19373 7.99638 7.99499C8.19512 7.79625 8.44833 7.66091 8.72398 7.60608C8.99964 7.55125 9.28537 7.57939 9.54503 7.68694C9.80469 7.7945 10.0266 7.97664 10.1828 8.21033C10.3389 8.44402 10.4223 8.71877 10.4223 8.99983C10.4223 9.37671 10.2726 9.73816 10.0061 10.0047C9.73955 10.2712 9.3781 10.4209 9.00122 10.4209Z" fill="white"/>
<path d="M11.3412 7.24871C11.659 7.24871 11.9167 6.99104 11.9167 6.67318C11.9167 6.35533 11.659 6.09766 11.3412 6.09766C11.0233 6.09766 10.7656 6.35533 10.7656 6.67318C10.7656 6.99104 11.0233 7.24871 11.3412 7.24871Z" fill="white"/>
</g>
<defs>
<linearGradient id="paint0_linear_501_1662" x1="9" y1="17.9171" x2="9" y2="1.21974" gradientUnits="userSpaceOnUse">
<stop stop-color="#E09B3D"/>
<stop offset="0.24" stop-color="#C74C4D"/>
<stop offset="0.65" stop-color="#C21975"/>
<stop offset="1" stop-color="#7024C4"/>
</linearGradient>
<clipPath id="clip0_501_1662">
<rect width="18" height="18" fill="white"/>
</clipPath>
</defs>
</svg>
