<svg width="24" height="24" viewBox="0 0 24 24" fill="none" xmlns="http://www.w3.org/2000/svg">
<path d="M15.5502 12.9961L13.5402 15.0129C12.7251 15.8309 11.2909 15.8485 10.4582 15.0129L8.44802 12.9961L1.22852 20.239C1.49725 20.3633 1.79355 20.4375 2.10855 20.4375H21.8898C22.2048 20.4375 22.501 20.3634 22.7696 20.2391L15.5502 12.9961Z" fill="#215D9C"/>
<path d="M21.8897 3.5625H2.10845C1.79345 3.5625 1.49716 3.63666 1.22852 3.76092L8.94306 11.5011C8.94358 11.5016 8.94419 11.5017 8.9447 11.5022C8.94522 11.5027 8.94531 11.5034 8.94531 11.5034L11.4537 14.0201C11.7202 14.2866 12.2781 14.2866 12.5445 14.0201L15.0524 11.5038C15.0524 11.5038 15.053 11.5027 15.0535 11.5022C15.0535 11.5022 15.0547 11.5016 15.0552 11.5011L22.7695 3.76088C22.5009 3.63656 22.2047 3.5625 21.8897 3.5625Z" fill="#215D9C"/>
<path d="M0.224344 4.74438C0.0853125 5.02554 0 5.33763 0 5.67195V18.3282C0 18.6625 0.0852187 18.9746 0.224297 19.2558L7.45631 12.0003L0.224344 4.74438Z" fill="#215D9C"/>
<path d="M23.7749 4.74414L16.543 12.0002L23.7749 19.2557C23.9139 18.9745 23.9992 18.6625 23.9992 18.328V5.6718C23.9992 5.33739 23.9139 5.0253 23.7749 4.74414Z" fill="#215D9C"/>
</svg>
