<svg width="24" height="24" viewBox="0 0 24 24" fill="none" xmlns="http://www.w3.org/2000/svg">
<g clip-path="url(#clip0_405_4546)">
<path d="M12.131 5.72972C16.175 5.7694 18.7084 5.51779 19.0505 10.0001H23.9819C23.9819 3.05631 17.926 2.12036 12.0027 2.12036C6.07887 2.12036 0.0234375 3.05631 0.0234375 10.0001H4.91652C5.2951 5.43237 8.12069 5.69051 12.131 5.72972Z" fill="#215D9C"/>
<path d="M2.46988 12.2324C3.67098 12.2324 4.67041 12.3042 4.89262 11.1227C4.92249 10.9622 4.93976 10.7801 4.93976 10.5696H4.88281H0C0 12.3271 1.10587 12.2324 2.46988 12.2324Z" fill="#215D9C"/>
<path d="M19.0833 10.5696H19.0371C19.0371 10.7815 19.0553 10.964 19.0894 11.1227C19.3237 12.2123 20.3218 12.1446 21.5187 12.1446C22.8892 12.1446 24.0002 12.2347 24.0002 10.5696H19.0833Z" fill="#215D9C"/>
<path d="M16.6741 9.37229V8.67394C16.6741 8.36165 16.3142 8.34204 15.8698 8.34204H15.1439C14.7 8.34204 14.3401 8.36165 14.3401 8.67394V9.27566V9.74247H9.20517V9.27566V8.67394C9.20517 8.36165 8.84526 8.34204 8.40133 8.34204H7.67497C7.23104 8.34204 6.87113 8.36165 6.87113 8.67394V9.37229V9.98194C5.70131 11.1975 1.87348 16.3721 1.73438 16.9985L1.73624 21.1788C1.73624 21.5648 2.0504 21.879 2.43645 21.879H21.1088C21.4948 21.879 21.809 21.5648 21.809 21.1788V16.9775C21.6713 16.3693 17.8444 11.197 16.6741 9.98147V9.37229ZM8.95216 17.561C8.57638 17.561 8.27155 17.2567 8.27155 16.8804C8.27155 16.5042 8.57638 16.1998 8.95216 16.1998C9.32794 16.1998 9.63277 16.5042 9.63277 16.8804C9.63277 17.2567 9.32794 17.561 8.95216 17.561ZM8.95216 15.227C8.57638 15.227 8.27155 14.9226 8.27155 14.5464C8.27155 14.1701 8.57638 13.8658 8.95216 13.8658C9.32794 13.8658 9.63277 14.1701 9.63277 14.5464C9.63277 14.9226 9.32794 15.227 8.95216 15.227ZM8.95216 12.8934C8.57638 12.8934 8.27155 12.5891 8.27155 12.2128C8.27155 11.837 8.57638 11.5322 8.95216 11.5322C9.32794 11.5322 9.63277 11.837 9.63277 12.2128C9.63277 12.5891 9.32794 12.8934 8.95216 12.8934ZM11.753 17.561C11.3772 17.561 11.0724 17.2567 11.0724 16.8804C11.0724 16.5042 11.3772 16.1998 11.753 16.1998C12.1293 16.1998 12.4336 16.5042 12.4336 16.8804C12.4336 17.2567 12.1293 17.561 11.753 17.561ZM11.753 15.227C11.3772 15.227 11.0724 14.9226 11.0724 14.5464C11.0724 14.1701 11.3772 13.8658 11.753 13.8658C12.1293 13.8658 12.4336 14.1701 12.4336 14.5464C12.4336 14.9226 12.1293 15.227 11.753 15.227ZM11.753 12.8934C11.3772 12.8934 11.0724 12.5891 11.0724 12.2128C11.0724 11.837 11.3772 11.5322 11.753 11.5322C12.1293 11.5322 12.4336 11.837 12.4336 12.2128C12.4336 12.5891 12.1293 12.8934 11.753 12.8934ZM14.5539 17.561C14.1776 17.561 13.8732 17.2567 13.8732 16.8804C13.8732 16.5042 14.1776 16.1998 14.5539 16.1998C14.9301 16.1998 15.2345 16.5042 15.2345 16.8804C15.2345 17.2567 14.9301 17.561 14.5539 17.561ZM14.5539 15.227C14.1776 15.227 13.8732 14.9226 13.8732 14.5464C13.8732 14.1701 14.1776 13.8658 14.5539 13.8658C14.9301 13.8658 15.2345 14.1701 15.2345 14.5464C15.2345 14.9226 14.9301 15.227 14.5539 15.227ZM14.5539 12.8934C14.1776 12.8934 13.8732 12.5891 13.8732 12.2128C13.8732 11.837 14.1776 11.5322 14.5539 11.5322C14.9301 11.5322 15.2345 11.837 15.2345 12.2128C15.2345 12.5891 14.9301 12.8934 14.5539 12.8934Z" fill="#215D9C"/>
</g>
<defs>
<clipPath id="clip0_405_4546">
<rect width="24" height="24" fill="white"/>
</clipPath>
</defs>
</svg>
