<svg width="18" height="18" viewBox="0 0 18 18" fill="none" xmlns="http://www.w3.org/2000/svg">
<g clip-path="url(#clip0_501_1675)">
<path d="M9 18C13.9706 18 18 13.9706 18 9C18 4.02944 13.9706 0 9 0C4.02944 0 0 4.02944 0 9C0 13.9706 4.02944 18 9 18Z" fill="#F20000"/>
<path d="M13.2897 6.83544C13.1097 6.27649 12.5141 5.94609 11.9611 5.86912C9.98977 5.65951 8.00181 5.65951 6.03053 5.86912C5.48224 5.94609 4.88658 6.28123 4.70658 6.83544C4.42593 8.26535 4.42593 9.73618 4.70658 11.1661C4.89132 11.7239 5.48697 12.0554 6.04 12.1324C8.01135 12.3408 9.99918 12.3408 11.9705 12.1324C12.5188 12.0554 13.1145 11.7191 13.2945 11.1661C13.5736 9.73587 13.572 8.26504 13.2897 6.83544ZM7.92408 10.7244V7.27596L10.7318 9.00017C9.78566 9.58162 8.86671 10.1477 7.92408 10.7244Z" fill="white"/>
</g>
<defs>
<clipPath id="clip0_501_1675">
<rect width="18" height="18" fill="white"/>
</clipPath>
</defs>
</svg>
