<svg width="16" height="17" viewBox="0 0 16 17" fill="none" xmlns="http://www.w3.org/2000/svg">
<path fill-rule="evenodd" clip-rule="evenodd" d="M3.29085 4.85921C2.66602 5.48405 2.66602 6.48972 2.66602 8.50104C2.66602 10.5124 2.66602 11.518 3.29085 12.1429C3.91569 12.7677 4.92136 12.7677 6.93268 12.7677H9.06602C11.0773 12.7677 12.083 12.7677 12.7078 12.1429C13.3327 11.518 13.3327 10.5124 13.3327 8.50104C13.3327 6.48972 13.3327 5.48405 12.7078 4.85921C12.083 4.23438 11.0773 4.23438 9.06602 4.23438H6.93268C4.92136 4.23438 3.91569 4.23438 3.29085 4.85921ZM11.5066 6.11163C11.6481 6.28135 11.6251 6.53357 11.4554 6.675L10.284 7.65121C9.81124 8.04516 9.42809 8.36447 9.08992 8.58196C8.73766 8.80852 8.39459 8.95164 7.99935 8.95164C7.60411 8.95164 7.26104 8.80852 6.90878 8.58196C6.57061 8.36447 6.18746 8.04517 5.71474 7.65122L4.54328 6.675C4.37356 6.53357 4.35063 6.28135 4.49206 6.11163C4.63349 5.94192 4.88571 5.91899 5.05542 6.06042L6.20683 7.01993C6.70441 7.43458 7.04987 7.72153 7.34153 7.90911C7.62385 8.09069 7.81531 8.15164 7.99935 8.15164C8.18339 8.15164 8.37485 8.09069 8.65717 7.90911C8.94883 7.72153 9.29429 7.43458 9.79187 7.01993L10.9433 6.06042C11.113 5.91899 11.3652 5.94192 11.5066 6.11163Z" fill="#215D9C"/>
</svg>
