<svg width="16" height="17" viewBox="0 0 16 17" fill="none" xmlns="http://www.w3.org/2000/svg">
<path fill-rule="evenodd" clip-rule="evenodd" d="M7.99909 3.16406C5.64267 3.16406 3.73242 5.29877 3.73242 7.6974C3.73242 10.0772 5.09419 12.664 7.21886 13.6571C7.71415 13.8886 8.28403 13.8886 8.77932 13.6571C10.904 12.664 12.2658 10.0772 12.2658 7.6974C12.2658 5.29877 10.3555 3.16406 7.99909 3.16406ZM7.99909 8.4974C8.58819 8.4974 9.06576 8.01983 9.06576 7.43073C9.06576 6.84163 8.58819 6.36406 7.99909 6.36406C7.40998 6.36406 6.93242 6.84163 6.93242 7.43073C6.93242 8.01983 7.40998 8.4974 7.99909 8.4974Z" fill="#215D9C"/>
</svg>
