<svg width="18" height="18" viewBox="0 0 18 18" fill="none" xmlns="http://www.w3.org/2000/svg">
<path d="M7.82177 4.99087L8.21118 5.68863C8.5626 6.31832 8.42153 7.14436 7.86805 7.69785C7.86804 7.69785 7.86805 7.69785 7.86804 7.69785C7.86793 7.69797 7.19679 8.36932 8.41393 9.58646C9.63042 10.8029 10.3017 10.1332 10.3025 10.1323C10.3026 10.1323 10.3025 10.1323 10.3026 10.1323C10.8561 9.57886 11.6821 9.4378 12.3118 9.78921L13.0095 10.1786C13.9604 10.7093 14.0726 12.0427 13.2369 12.8785C12.7347 13.3807 12.1195 13.7715 11.4394 13.7972C10.2945 13.8406 8.35019 13.5509 6.39984 11.6005C4.4495 9.6502 4.15975 7.70591 4.20315 6.56102C4.22893 5.88093 4.6197 5.26571 5.1219 4.76351C5.95767 3.92774 7.29112 4.04003 7.82177 4.99087Z" fill="white"/>
</svg>
