<svg width="16" height="17" viewBox="0 0 16 17" fill="none" xmlns="http://www.w3.org/2000/svg">
<path d="M6.95247 4.93633L7.29861 5.55656C7.61098 6.11628 7.48559 6.85054 6.9936 7.34253C6.9936 7.34253 6.9936 7.34253 6.9936 7.34254C6.99348 7.34265 6.39694 7.93941 7.47883 9.0213C8.56007 10.1025 9.15678 9.50734 9.15759 9.50653C9.15762 9.50651 9.15761 9.50652 9.15763 9.50649C9.64962 9.01454 10.3839 8.88915 10.9436 9.20152L11.5638 9.54766C12.409 10.0193 12.5088 11.2046 11.7659 11.9475C11.3195 12.3939 10.7726 12.7413 10.1681 12.7642C9.15044 12.8028 7.42217 12.5452 5.68853 10.8116C3.95489 9.07796 3.69734 7.34969 3.73592 6.33202C3.75883 5.7275 4.10618 5.18063 4.55259 4.73423C5.29549 3.99133 6.48078 4.09114 6.95247 4.93633Z" fill="#215D9C"/>
</svg>
