<svg width="18" height="18" viewBox="0 0 18 18" fill="none" xmlns="http://www.w3.org/2000/svg">
<path d="M12.9814 11.2021L14.0113 8.11248C14.911 5.41345 15.3608 4.06393 14.6484 3.35157C13.9361 2.63921 12.5866 3.08905 9.88752 3.98873L6.79792 5.01859C4.61954 5.74472 3.53035 6.10778 3.22084 6.64019C2.92639 7.14667 2.92639 7.77221 3.22083 8.2787C3.53035 8.81111 4.61954 9.17417 6.79792 9.9003C7.06789 9.99029 7.3716 9.92603 7.57376 9.72575L10.8771 6.45297C11.063 6.26885 11.3629 6.27025 11.547 6.45609C11.7311 6.64193 11.7298 6.94185 11.5439 7.12597L8.29387 10.3459C8.07105 10.5667 8.00052 10.9045 8.09971 11.2021C8.82582 13.3804 9.18889 14.4696 9.7213 14.7792C10.2278 15.0736 10.8533 15.0736 11.3598 14.7792C11.8922 14.4696 12.2553 13.3805 12.9814 11.2021Z" fill="white"/>
</svg>
