<svg width="16" height="16" viewBox="0 0 16 16" fill="none" xmlns="http://www.w3.org/2000/svg">
<path d="M11.5403 9.95725L12.4558 7.21093C13.2555 4.81179 13.6553 3.61222 13.0221 2.97901C12.3889 2.3458 11.1893 2.74566 8.79021 3.54537L6.0439 4.46081C4.10756 5.10625 3.13939 5.42898 2.86427 5.90223C2.60254 6.35244 2.60254 6.90847 2.86427 7.35868C3.13939 7.83193 4.10756 8.15465 6.0439 8.8001C6.28387 8.88009 6.55384 8.82298 6.73353 8.64495L9.66987 5.73581C9.83507 5.57215 10.1017 5.57339 10.2653 5.73858C10.429 5.90378 10.4277 6.17037 10.2626 6.33404L7.37363 9.19619C7.17557 9.39242 7.11287 9.69275 7.20104 9.95724C7.84648 11.8936 8.16921 12.8617 8.64245 13.1369C9.09266 13.3986 9.6487 13.3986 10.0989 13.1369C10.5722 12.8617 10.8949 11.8936 11.5403 9.95725Z" fill="#215D9C"/>
</svg>
