<svg width="32" height="32" viewBox="0 0 32 32" fill="none" xmlns="http://www.w3.org/2000/svg">
<g clip-path="url(#clip0_426_3209)">
<path d="M22.6171 20.1068L21.0797 17.6289C22.6932 19.6337 25.6787 19.7333 27.4217 17.8799C29.0132 16.1876 28.932 13.5299 27.2395 11.9381C25.5478 10.3471 22.8896 10.4278 21.2978 12.1205C20.0749 13.4208 19.8531 15.2698 20.5416 16.7616L16.8226 10.7676L22.3415 9.17508C24.0554 8.68051 24.8654 6.71864 23.9946 5.1582C23.3623 4.0252 22.0499 3.48508 20.8034 3.84483L12.4482 6.25583C10.2818 6.88101 9.31172 9.39926 10.5012 11.3165L13.0266 15.3867L8.59766 18.1348C13.926 18.2572 17.7758 19.8795 22.6171 20.1068Z" fill="white"/>
<path d="M1.19409 22.8677C13.3064 19.4246 17.8808 26.3756 31.2991 22.873C31.8001 22.7423 32.1001 22.2301 31.9694 21.7291C31.8386 21.2282 31.3265 20.9281 30.8255 21.0588C17.934 24.4241 13.3533 17.4619 0.681398 21.0641C0.183398 21.2057 -0.105602 21.7242 0.0359604 22.2223C0.177585 22.7204 0.696273 23.0093 1.19409 22.8677Z" fill="white"/>
<path d="M30.8255 25.4341C17.9103 28.8055 13.3784 21.83 0.681398 25.4394C0.183398 25.581 -0.105602 26.0995 0.0359604 26.5975C0.177523 27.0956 0.69621 27.3846 1.19409 27.243C13.3064 23.7999 17.8808 30.7509 31.2991 27.2483C31.8001 27.1175 32.1001 26.6054 31.9694 26.1044C31.8386 25.6034 31.3265 25.3034 30.8255 25.4341Z" fill="white"/>
</g>
<defs>
<clipPath id="clip0_426_3209">
<rect width="32" height="32" fill="white"/>
</clipPath>
</defs>
</svg>
